<svg width="18" height="18" viewBox="0 0 18 18" fill="none" xmlns="http://www.w3.org/2000/svg">
<g clip-path="url(#clip0_123_470)">
<mask id="mask0_123_470" style="mask-type:luminance" maskUnits="userSpaceOnUse" x="0" y="0" width="18" height="18">
<path d="M13.932 0.5H3.73203C1.85426 0.5 0.332031 2.02223 0.332031 3.9V14.1C0.332031 15.9778 1.85426 17.5 3.73203 17.5H13.932C15.8098 17.5 17.332 15.9778 17.332 14.1V3.9C17.332 2.02223 15.8098 0.5 13.932 0.5Z" fill="white"/>
</mask>
<g mask="url(#mask0_123_470)">
<path d="M13.7798 0.5H3.88427C1.92242 0.5 0.332031 2.09039 0.332031 4.05224V13.9478C0.332031 15.9096 1.92242 17.5 3.88427 17.5H13.7798C15.7416 17.5 17.332 15.9096 17.332 13.9478V4.05224C17.332 2.09039 15.7416 0.5 13.7798 0.5Z" fill="white"/>
<path fill-rule="evenodd" clip-rule="evenodd" d="M17.332 0.5H0.332031V12.1266C1.66548 11.6326 2.96028 11.1503 2.96028 11.1503L7.07959 13.3048C7.07959 13.3048 5.77863 15.7577 4.85413 17.5H17.332V0.5ZM5.77185 8.53882H11.6566C11.7632 8.53882 11.8481 8.57071 11.8527 8.73467C11.8622 9.3043 11.8025 11.0353 10.8065 11.7379C9.65448 12.4714 7.8321 12.461 7.53727 12.456C7.52623 12.4552 7.51626 12.4543 7.50689 12.4534C7.47241 12.4502 7.44628 12.4478 7.40649 12.456C7.20379 12.3194 3.48337 10.4974 3.48337 10.4974C3.48337 10.4974 4.49287 8.38389 4.98724 7.36366C5.04217 7.19909 5.18995 7.19909 5.24879 7.36366C5.36517 7.60902 5.77185 8.53882 5.77185 8.53882ZM6.68727 10.4974C6.36201 10.4974 6.09879 10.2332 6.09879 9.90983C6.09879 9.58505 6.36201 9.32226 6.68727 9.32226C7.01171 9.32226 7.27572 9.58505 7.27572 9.90983C7.27572 10.2332 7.01171 10.4974 6.68727 10.4974Z" fill="#95001B"/>
</g>
</g>
<defs>
<clipPath id="clip0_123_470">
<rect width="17" height="17" fill="white" transform="translate(0.333008 0.5)"/>
</clipPath>
</defs>
</svg>
