<svg width="20" height="21" viewBox="0 0 20 21" fill="none" xmlns="http://www.w3.org/2000/svg">
<path d="M16.7539 16.4818C13.9525 19.81 9.72293 21 9.62711 21C9.53129 21 5.30176 19.81 2.50032 16.4818C1.07222 14.7857 0 12.5425 0 9.62005C0 6.962 1.07677 4.55927 2.81969 2.81763C4.56261 1.07598 6.96711 0 9.62711 0C12.2871 0 14.6916 1.07598 16.4345 2.81763C18.1774 4.55927 19.2542 6.962 19.2542 9.62005C19.2542 12.5425 18.182 14.7903 16.7539 16.4818Z" fill="white"/>
<path d="M9.62711 20.4666C9.7138 20.4666 13.665 19.3267 16.3433 16.1398C17.6984 14.5304 18.7158 12.3967 18.7158 9.62461C18.7158 7.11701 17.6984 4.8465 16.0513 3.2006C14.4087 1.55471 12.132 0.537991 9.62254 0.537991C7.11311 0.537991 4.84093 1.55471 3.19383 3.2006C1.54672 4.84194 0.529264 7.11246 0.529264 9.62461C0.529264 12.4012 1.54672 14.535 2.90181 16.1398C5.59375 19.3267 9.54042 20.4666 9.62711 20.4666ZM16.7539 16.4818C13.9525 19.81 9.72293 21 9.62711 21C9.53129 21 5.30176 19.81 2.50032 16.4818C1.07222 14.7857 0 12.5425 0 9.62005C0 6.962 1.07677 4.55927 2.81969 2.81763C4.56261 1.07598 6.96711 0 9.62711 0C12.2871 0 14.6916 1.07598 16.4345 2.81763C18.1774 4.55927 19.2542 6.962 19.2542 9.62005C19.2542 12.5425 18.182 14.7903 16.7539 16.4818Z" fill="#18395B"/>
<path d="M8.06295 6.01025H4.92285V7.643H8.06295V6.01025Z" fill="#009ACF"/>
<path d="M14.3364 6.01025H11.1963V7.643H14.3364V6.01025Z" fill="#F15A29"/>
<path d="M11.1977 6.01025H8.05762V7.643H11.1977V6.01025Z" fill="#009ACF"/>
<path d="M8.06295 7.6377H4.92285V9.27044H8.06295V7.6377Z" fill="#F15A29"/>
<path d="M14.3364 7.6377H11.1963V9.27044H14.3364V7.6377Z" fill="#009ACF"/>
<path d="M11.1977 7.6377H8.05762V9.27044H11.1977V7.6377Z" fill="#009ACF"/>
<path d="M8.06295 9.26953H4.92285V10.9023H8.06295V9.26953Z" fill="#009ACF"/>
<path d="M14.3364 9.26953H11.1963V10.9023H14.3364V9.26953Z" fill="#009ACF"/>
<path d="M11.1977 9.26953H8.05762V10.9023H11.1977V9.26953Z" fill="#FBB040"/>
<path fill-rule="evenodd" clip-rule="evenodd" d="M9.62695 13.2545V10.3955L15.0433 11.0521L14.6463 12.8441C14.263 13.0994 13.7839 13.2545 13.2637 13.2545C12.5199 13.2545 11.8629 12.9444 11.4476 12.4656C11.0278 12.9398 10.3707 13.2545 9.62695 13.2545Z" fill="#009ACF"/>
<path fill-rule="evenodd" clip-rule="evenodd" d="M9.6273 13.2545V10.3955L4.21094 11.0521L4.60792 12.8441C4.99122 13.0994 5.47034 13.2545 5.99053 13.2545C6.73431 13.2545 7.39139 12.9444 7.8112 12.4656C8.22644 12.9398 8.88352 13.2545 9.6273 13.2545Z" fill="white"/>
<path d="M11.4662 7.36903H14.0669V6.27481H11.4662V7.36903ZM4.29834 12.5985L3.95158 11.021L3.8877 10.7338L4.17971 10.6973L4.65422 10.638V9.53925V9.27025V9.00126V7.90703V7.63804V7.36903V6.00581V5.73682H4.92342H7.79329H8.06249H8.33169H10.9324H11.2016H11.4708H14.3406H14.6098V6.00581V7.36903V7.63804V7.90703V9.00126V9.27025V9.53925V10.6426L15.0843 10.6973L15.3764 10.7338L15.3125 11.021L14.9657 12.5985C14.7832 12.7763 14.5642 12.9222 14.3224 13.0317L14.7285 11.1943L9.63659 10.5788L4.54471 11.1943L4.95079 13.0317C4.69985 12.9222 4.48085 12.7718 4.29834 12.5985ZM5.18804 10.5742L7.78874 10.2596V9.53925H5.18804V10.5742ZM8.32712 10.1912L9.59552 10.0362L9.62747 10.0317L9.6594 10.0362L10.9278 10.1912V9.53468H8.32712V10.1912ZM11.4662 10.2596L14.0669 10.5742V9.53925H11.4662V10.2596ZM7.78874 6.27937H5.18804V7.37359H7.78874V6.27937ZM8.32712 7.36903H10.9278V6.27481H8.32712V7.36903ZM8.32712 9.00126H10.9278V7.90703H8.32712V9.00126ZM7.78874 7.90703H5.18804V9.00126H7.78874V7.90703ZM11.4662 9.00126H14.0669V7.90703H11.4662V9.00126Z" fill="#18395B"/>
<path d="M8.0119 17.4487C8.19899 17.663 8.44083 17.8409 8.72374 17.9594C8.99296 18.078 9.30326 18.1464 9.6318 18.1464C9.95578 18.1464 10.2661 18.078 10.5353 17.9594C10.8182 17.8363 11.06 17.663 11.2471 17.4487L11.6532 17.7998C11.416 18.0734 11.1057 18.3014 10.7497 18.4519C10.4121 18.5978 10.0333 18.6799 9.6318 18.6799C9.23025 18.6799 8.85151 18.5978 8.51385 18.4473C8.15793 18.2923 7.85219 18.0689 7.61035 17.7953L8.0119 17.4487Z" fill="#18395B"/>
<path d="M4.37578 13.8707C4.56284 14.085 4.80466 14.2628 5.08754 14.3859C5.35674 14.5045 5.66699 14.5683 5.9955 14.5683C6.32401 14.5683 6.62971 14.4999 6.8989 14.3859C7.17722 14.2628 7.4236 14.0896 7.61067 13.8707L7.81142 13.6382L8.01218 13.8707C8.19924 14.085 8.44562 14.2628 8.72394 14.3859C8.99314 14.5045 9.3034 14.5683 9.62735 14.5683C9.95585 14.5683 10.2615 14.4999 10.5353 14.3859C10.8136 14.2628 11.06 14.0896 11.2471 13.8707L11.4478 13.6382L11.6486 13.8707C11.8356 14.085 12.0775 14.2628 12.3558 14.3813C12.625 14.4999 12.9352 14.5637 13.2637 14.5637C13.5922 14.5637 13.8979 14.4953 14.1717 14.3813C14.45 14.2582 14.6964 14.085 14.8835 13.8661L15.2895 14.2172C15.0523 14.4908 14.742 14.7142 14.3861 14.8692C14.0485 15.0151 13.6653 15.1017 13.2683 15.1017C12.8668 15.1017 12.4881 15.0196 12.1505 14.8692C11.8904 14.7552 11.6531 14.6047 11.4524 14.4224C11.2516 14.6047 11.0144 14.7552 10.7543 14.8692C10.4167 15.0151 10.0334 15.1017 9.63647 15.1017C9.23496 15.1017 8.85627 15.0196 8.51863 14.8692C8.25857 14.7552 8.0213 14.6047 7.82054 14.4224C7.61979 14.6047 7.38253 14.7552 7.12246 14.8692C6.78483 15.0151 6.40158 15.1017 6.00463 15.1017C5.60312 15.1017 5.22442 15.0196 4.88679 14.8692C4.5309 14.7142 4.22522 14.4908 3.9834 14.2172L4.37578 13.8707Z" fill="#18395B"/>
<path d="M6.19224 15.6564C6.37932 15.8707 6.62116 16.0485 6.90407 16.1671C7.1733 16.2856 7.48358 16.354 7.81212 16.354C8.14066 16.354 8.44639 16.2856 8.71562 16.1671C8.99853 16.044 9.24037 15.8661 9.42745 15.6564L9.62823 15.4238L9.829 15.6564C10.0161 15.8707 10.2579 16.0485 10.5408 16.1671C10.8101 16.2856 11.1204 16.354 11.4489 16.354C11.7774 16.354 12.0832 16.2856 12.3569 16.1671C12.6353 16.044 12.8817 15.8661 13.0688 15.6564L13.4749 16.0075C13.2376 16.2811 12.9273 16.509 12.5714 16.6595C12.2337 16.8054 11.8504 16.8921 11.4535 16.8921C11.0565 16.8921 10.6732 16.81 10.3355 16.6595C10.0754 16.5455 9.83813 16.3951 9.63735 16.2127C9.43658 16.3951 9.1993 16.5455 8.9392 16.6595C8.60153 16.8054 8.21823 16.8921 7.82124 16.8921C7.41969 16.8921 7.04097 16.81 6.7033 16.6595C6.34738 16.5045 6.04165 16.2811 5.7998 16.0075L6.19224 15.6564Z" fill="#18395B"/>
<path fill-rule="evenodd" clip-rule="evenodd" d="M6.8768 2.69492L6.55273 2.93664V2.5809L6.8768 2.34375H7.19627V4.67885H6.8768V2.69492Z" fill="#18395B"/>
<path fill-rule="evenodd" clip-rule="evenodd" d="M8.15387 2.99172C8.15387 3.10118 8.19038 3.18326 8.25428 3.23799C8.31818 3.29728 8.3912 3.32465 8.47792 3.32465C8.56463 3.32465 8.64222 3.29272 8.70612 3.23799C8.77002 3.18326 8.80197 3.09662 8.80653 2.99172C8.80653 2.88226 8.77002 2.7956 8.70612 2.74087C8.64222 2.68614 8.56463 2.65878 8.47792 2.65878C8.3912 2.65878 8.31818 2.68614 8.25428 2.74087C8.18582 2.7956 8.15387 2.8777 8.15387 2.99172ZM8.10823 3.99508C8.11279 4.09998 8.1493 4.1912 8.22233 4.25961C8.29079 4.33258 8.37751 4.36906 8.47792 4.36906C8.58289 4.36906 8.66505 4.33258 8.73807 4.25961C8.80654 4.1912 8.84761 4.10454 8.84761 3.99508C8.84304 3.88562 8.80654 3.79897 8.73807 3.726C8.66961 3.65758 8.57833 3.62565 8.47792 3.62109C8.37751 3.62565 8.29079 3.65758 8.22233 3.726C8.1493 3.79441 8.11279 3.88562 8.10823 3.99508ZM7.78418 3.99508C7.78418 3.7716 7.88003 3.59373 8.05803 3.47059C7.98957 3.4113 7.93479 3.33834 7.89371 3.2608C7.84807 3.18783 7.82525 3.10117 7.82525 2.99627C7.82525 2.80016 7.89372 2.64053 8.01695 2.51283C8.13562 2.38513 8.28623 2.32129 8.47336 2.32129C8.66049 2.32585 8.82023 2.38969 8.9389 2.51283C9.06213 2.64053 9.12146 2.80016 9.12146 2.99627C9.12146 3.09661 9.10321 3.18783 9.05757 3.2608C9.01193 3.33834 8.95716 3.4113 8.8887 3.47059C9.07126 3.5983 9.16254 3.7716 9.1671 3.99508C9.16254 4.20487 9.09864 4.37363 8.96628 4.50133C8.83392 4.62903 8.66962 4.69744 8.47336 4.69744C8.28167 4.69288 8.11736 4.62903 7.98957 4.50133C7.85721 4.37363 7.78418 4.20487 7.78418 3.99508Z" fill="#18395B"/>
<path fill-rule="evenodd" clip-rule="evenodd" d="M9.93831 3.20608C9.94288 3.44324 10.0478 3.56181 10.2578 3.56637C10.4632 3.56637 10.5727 3.44324 10.5773 3.20608V3.01452C10.5727 2.77736 10.4632 2.65878 10.2578 2.65878C10.0478 2.66334 9.94288 2.78192 9.93831 3.01452V3.20608ZM9.61426 2.99172C9.61426 2.77737 9.68272 2.60862 9.81508 2.4946C9.93831 2.38058 10.0844 2.32129 10.2578 2.32129C10.4358 2.32129 10.5819 2.38058 10.7096 2.4946C10.8329 2.61318 10.9013 2.77737 10.9013 2.99172V4.02701C10.8968 4.24136 10.8329 4.40555 10.7096 4.52413C10.5864 4.63815 10.4358 4.69744 10.2578 4.702C10.1072 4.69744 9.97483 4.65184 9.85616 4.56062C9.73749 4.46941 9.65991 4.3417 9.62796 4.17295H9.9657C10.0159 4.30522 10.1163 4.36906 10.2624 4.36906C10.4677 4.3645 10.5773 4.24592 10.5819 4.00876V3.78985C10.4267 3.84002 10.2806 3.86283 10.1483 3.86283C10.0022 3.86283 9.87442 3.81266 9.76944 3.7032C9.66447 3.5983 9.61426 3.4341 9.61883 3.21063V2.99172H9.61426Z" fill="#18395B"/>
<path fill-rule="evenodd" clip-rule="evenodd" d="M11.416 2.34375H12.7031V2.67669L11.9363 4.67885H11.5758L12.3425 2.67669H11.7401V3.01418H11.416V2.34375Z" fill="#18395B"/>
</svg>
