<svg width="15" height="21" viewBox="0 0 15 21" fill="none" xmlns="http://www.w3.org/2000/svg">
<path d="M7.38019 5.89848C5.75902 5.89848 4.43262 4.57129 4.43262 2.94923C4.43262 1.32715 5.75902 0 7.38019 0C9.00135 0 10.3278 1.32715 10.3278 2.94923C10.3278 4.57129 9.01774 5.89848 7.38019 5.89848Z" fill="#37B879"/>
<path d="M8.80822 16.1073C8.80822 17.4692 9.99481 17.539 10.5707 16.8406C11.0768 16.247 11.2687 15.4787 11.2687 14.7454C11.2687 13.0867 10.4136 11.847 8.79078 11.4105L8.80822 16.1073ZM8.80822 20.9962C8.26727 21.0311 6.57458 20.8565 6.33028 19.2152C5.92891 16.8232 5.92891 11.4105 5.92891 11.4105C4.23622 11.9169 3.81743 13.4359 3.57312 14.4835C3.15432 16.6136 3.81743 19.0406 4.00936 19.8089C4.20133 20.5771 2.78786 20.4025 1.75829 20.3327C1.18243 20.2803 0.711274 20.193 0.414619 19.1105C-0.10889 17.2248 -0.0390886 15.2168 0.100514 14.4311C0.798524 10.1534 3.31137 7.27246 7.48197 7.27246C11.6526 7.27246 14.8635 10.1534 14.8635 14.2914C14.9682 18.1152 13.0486 20.9962 8.80822 20.9962Z" fill="#37B879"/>
</svg>
